<?xml version="1.0" standalone="no"?>
<!DOCTYPE svg PUBLIC "-//W3C//DTD SVG 20010904//EN"
 "http://www.w3.org/TR/2001/REC-SVG-20010904/DTD/svg10.dtd">
<svg version="1.0" xmlns="http://www.w3.org/2000/svg"
 width="291.000000pt" height="291.000000pt" viewBox="0 0 291.000000 291.000000"
 preserveAspectRatio="xMidYMid meet">
<metadata>
Created by potrace 1.11, written by Peter Selinger 2001-2013
</metadata>
<g transform="translate(0.000000,291.000000) scale(0.100000,-0.100000)"
fill="#000000" stroke="none">
<path d="M1450 2669 l0 -245 110 -11 c322 -35 609 -230 750 -513 115 -231 137
-487 63 -725 -166 -530 -766 -809 -1283 -598 -168 69 -326 199 -428 352 -112
168 -164 338 -164 536 0 274 95 495 299 691 l73 70 -131 170 c-73 93 -140 180
-150 193 -18 23 -19 23 -46 6 -16 -10 -73 -64 -128 -119 -192 -193 -323 -432
-387 -706 -28 -122 -36 -383 -15 -515 63 -394 279 -750 593 -974 269 -191 577
-282 908 -268 373 17 716 166 976 427 203 202 334 444 396 730 27 120 27 447
1 570 -39 185 -125 393 -220 535 -248 369 -666 610 -1099 632 l-118 6 0 -244z"/>
<path d="M1360 1875 l0 -75 50 0 c63 0 64 -8 4 -100 -35 -54 -44 -77 -40 -96
9 -33 49 -52 71 -34 26 22 125 194 125 217 0 30 -37 53 -82 53 -36 0 -38 2
-38 30 0 29 1 30 48 30 50 0 74 13 65 36 -4 11 -29 14 -104 14 l-99 0 0 -75z"/>
<path d="M1460 1400 c-19 -19 -20 -31 -18 -178 l3 -157 48 -3 47 -3 0 164 c0
146 -2 166 -18 180 -24 22 -38 21 -62 -3z"/>
<path d="M1790 1401 c-5 -11 -10 -48 -10 -83 l0 -63 -50 78 -50 77 -55 0 -55
0 2 -172 3 -173 25 0 25 0 3 119 3 118 72 -112 c75 -118 94 -137 121 -127 14
6 16 28 16 170 0 113 -4 167 -12 175 -17 17 -26 15 -38 -7z"/>
<path d="M1072 1238 l3 -173 25 0 c25 0 25 2 30 95 l5 94 36 -89 c20 -49 41
-91 47 -93 5 -1 27 41 48 95 l39 97 3 -84 c2 -60 7 -89 19 -102 21 -23 46 -23
66 0 14 16 17 43 17 175 l0 157 -49 0 -49 0 -34 -86 -35 -86 -34 84 -34 83
-53 3 -52 3 2 -173z"/>
</g>
</svg>
