<svg xmlns="http://www.w3.org/2000/svg" viewBox="0 0 291 291" width="512" height="512">
	<style>
		tspan { white-space:pre }
		.shp0 { fill: #ffffff } 
		.shp1 { fill: #ff5b23 } 
		.shp2 { fill: #111111 } 
	</style>
	<g id="Background">
		<path id="Path 0" class="shp0" d="M120 2.46C115.87 3.16 109.8 4.48 106.5 5.41C103.2 6.34 96.45 8.64 91.5 10.53C86.55 12.42 78.9 16.08 74.5 18.66C70.1 21.24 64.34 24.96 61.69 26.93C59.05 28.89 57.02 30.8 57.19 31.17C57.36 31.54 64.14 40.43 72.25 50.92L87 70C96.69 63.5 102.65 60.16 106.5 58.37C110.35 56.59 117.32 54.2 122 53.07C126.67 51.94 133.87 50.73 138 50.39L145.5 49.76L145.01 1C131.44 1.16 124.12 1.77 120 2.46Z" />
		<path id="Path 1" class="shp1" d="M145.39 25.06L145.5 49.42C160.22 51.27 167.42 52.55 171 53.45C174.57 54.35 182.45 57.53 188.5 60.53C194.97 63.74 202.48 68.45 206.75 71.99C210.74 75.3 216.36 80.88 219.25 84.39C222.14 87.9 226.2 93.64 228.27 97.14C230.34 100.64 233.34 106.87 234.93 111C236.52 115.12 238.6 122.1 239.55 126.5C240.64 131.53 241.28 138.95 241.3 146.5C241.31 155.47 240.77 160.71 239.16 167.25C237.97 172.06 235.62 179.26 233.93 183.25C232.25 187.24 228.46 194.1 225.53 198.5C222.59 202.9 216.88 209.68 212.84 213.57C208.81 217.46 202.57 222.62 199 225.04C195.42 227.45 188.67 231.07 184 233.08C179.32 235.09 172.35 237.52 168.5 238.48C164.65 239.43 157.67 240.56 153 240.98C148.32 241.39 140.67 241.34 136 240.86C131.32 240.38 124.12 239.05 120 237.92C115.87 236.78 109.35 234.4 105.5 232.62C101.65 230.84 95.8 227.56 92.5 225.33C89.2 223.11 83.85 218.86 80.62 215.89C77.38 212.93 72.2 207.12 69.1 203C66.01 198.87 61.83 192.12 59.81 188C57.8 183.87 55.21 177.57 54.06 174C52.91 170.42 51.47 164.8 50.85 161.5C50.23 158.2 49.75 150.77 49.76 145C49.78 139.08 50.54 131.01 51.49 126.5C52.42 122.1 54.74 114.67 56.64 110C58.54 105.32 62.5 97.9 65.45 93.5C68.4 89.1 74.46 82.01 78.91 77.75L87 70C63.75 39.77 56.61 31 56.14 31C55.67 31 50.88 35.16 45.51 40.25C40.13 45.34 33.58 52.2 30.96 55.5C28.33 58.8 23.43 66 20.07 71.5C16.71 77 12.19 86 10.03 91.5C7.87 97 4.86 106.45 3.33 112.5C0.75 122.76 0.56 124.91 0.53 144.5C0.51 161.34 0.87 167.18 2.36 174C3.38 178.67 5.57 186.55 7.23 191.5C8.88 196.45 12.49 205 15.25 210.5C18.01 216 22.08 223.2 24.29 226.5C26.51 229.8 31.51 236.3 35.41 240.95C39.31 245.59 45.42 251.9 49 254.96C52.57 258.03 58.65 262.77 62.5 265.51C66.35 268.24 74.22 272.87 80 275.79C85.77 278.7 94.55 282.38 99.5 283.96C104.45 285.54 112.55 287.66 117.5 288.66C124.39 290.05 130.95 290.47 145.5 290.44C161.08 290.4 166.3 290.01 174.5 288.24C180 287.06 188.55 284.67 193.5 282.94C198.45 281.21 206.55 277.77 211.5 275.3C216.45 272.84 224.32 268.28 229 265.19C233.91 261.93 242.38 254.69 249.07 248.03C256.7 240.42 262.89 233.1 267.26 226.5C270.91 221 275.66 212.67 277.83 208C279.99 203.32 283.16 195 284.88 189.5C286.59 184 288.72 174.77 289.62 169C290.87 160.93 291.13 154.45 290.7 141C290.28 127.37 289.61 121.18 287.7 113C286.34 107.22 283.39 97.77 281.14 92C278.88 86.22 274.98 77.9 272.46 73.5C269.95 69.1 265.37 62.12 262.3 58C259.22 53.87 252.61 46.45 247.6 41.49C242.6 36.54 234.22 29.62 229 26.12C223.77 22.62 216.12 18.07 212 16C207.87 13.93 200.45 10.8 195.5 9.04C190.55 7.29 182.45 4.97 177.5 3.89C172.55 2.81 163.27 1.65 156.89 1.31L145.27 0.7" />
		<path id="Path 2" class="shp2" d="M136.04 104.46L136 112C144.78 112 146 112.37 146 113.5C146 114.32 143.86 118.36 141.25 122.47C136.56 129.86 136.52 129.98 138.25 132.47C139.5 134.28 140.77 134.93 142.68 134.75C144.89 134.54 146.31 132.94 150.68 125.75C153.61 120.94 156.25 115.99 156.54 114.75C156.84 113.51 156.51 111.68 155.79 110.68C155.01 109.57 152.61 108.58 149.74 108.18C145.37 107.56 144.97 107.27 144.99 104.75C145 102.13 145.25 101.99 150.25 101.75C154.75 101.54 155.5 101.21 155.5 99.5C155.5 97.66 154.74 97.48 145.79 97.21L136.07 96.93M147.99 150.78C147.17 151.06 146.17 151.79 145.77 152.4C145.36 153 145.02 160.59 145.02 169.25L145 185L154 185C153.52 153.95 153.35 152.65 151.49 151.5C150.39 150.81 148.82 150.49 147.99 150.78ZM179.97 150.73C178.95 151.06 178.65 153.04 178.8 158.58C178.92 162.99 178.59 166 178 166C177.45 166 174.97 162.62 172.5 158.5L168 151L157 151L157 185L162 185C162 167.17 162.34 162 162.75 162.01C163.16 162.01 166.76 167.18 170.75 173.51C177.37 184 178.26 185 181 185L184 185C184.43 154.7 184.23 152.1 182.9 151.27C182.05 150.73 180.73 150.48 179.97 150.73ZM108.06 167.95L108 185C112.99 185 113 184.95 112.98 175.75C112.97 170.45 113.34 166.93 113.83 167.5C114.31 168.05 116.11 172.21 117.85 176.75C119.58 181.29 121.34 185.01 121.75 185.02C122.16 185.04 124.3 180.65 126.5 175.27L130.5 165.5C131.33 179.72 132.02 183.29 133 184.4C133.82 185.33 135.06 186.07 135.75 186.04C136.44 186.02 137.9 185.1 139 184C140.83 182.17 141 180.67 141 166.5L141 151L131.5 150.94C126.07 164.15 124.27 167.72 124 167.4C123.72 167.09 122.07 163.38 120.33 159.16L117.16 151.5L108.11 150.89" />
	</g>
</svg>